<svg xmlns="http://www.w3.org/2000/svg" class="graphdiagram" viewBox="-1057.6317785599213 -915.2981145752067 1920 891"><g class="layer relationships"><g class="related-pair"><g class="relationship" transform="translate(-786.0937500000011,-479.8832397460933) rotate(-32.621664568673374)"><path class="relationship" d="M 123.67585341832043 4 L 359.75150234043747 4 L 359.75150234043747 16 L 391.75150234043747 0 L 359.75150234043747 -16 L 359.75150234043747 -4 L 123.67585341832043 -4 Z" fill="rgb(0, 0, 0)" stroke="rgb(51, 51, 51)" stroke-width="0px"/></g></g><g class="related-pair"><g class="relationship" transform="translate(-336.9821874999998,-767.3413958740244) rotate(0)"><path class="relationship" d="M 141.47770456374425 4 L 309.43114013838203 4 L 309.43114013838203 16 L 341.43114013838203 0 L 309.43114013838203 -16 L 309.43114013838203 -4 L 141.47770456374425 -4 Z" fill="rgb(0, 0, 0)" stroke="rgb(51, 51, 51)" stroke-width="0px"/></g></g><g class="related-pair"><g class="relationship" transform="translate(-786.0937500000011,-479.8832397460933) rotate(3.4334580390473644)"><path class="relationship" d="M 123.67585341832043 4 L 286.7017305582805 4 L 286.7017305582805 16 L 318.7017305582805 0 L 286.7017305582805 -16 L 286.7017305582805 -4 L 123.67585341832043 -4 Z" fill="rgb(0, 0, 0)" stroke="rgb(51, 51, 51)" stroke-width="0px"/></g></g><g class="related-pair"><g class="relationship" transform="translate(-336.9821874999998,-452.9379016113279) rotate(0)"><path class="relationship" d="M 131.21742531129283 4 L 332.8052844147024 4 L 332.8052844147024 16 L 364.8052844147024 0 L 332.8052844147024 -16 L 332.8052844147024 -4 L 131.21742531129283 -4 Z" fill="rgb(0, 0, 0)" stroke="rgb(51, 51, 51)" stroke-width="0px"/></g></g><g class="related-pair"><g class="relationship" transform="translate(151.56444458007832,-767.3413958740244) rotate(32.057639975090645)"><path class="relationship" d="M 147.1154919416961 4 L 405.64432120311466 4 L 405.64432120311466 16 L 437.64432120311466 0 L 405.64432120311466 -16 L 405.64432120311466 -4 L 147.1154919416961 -4 Z" fill="rgb(0, 0, 0)" stroke="rgb(51, 51, 51)" stroke-width="0px"/></g></g><g class="related-pair"><g class="relationship" transform="translate(151.56444458007832,-452.9379016113279) rotate(-3.359653107979251)"><path class="relationship" d="M 123.74134766537571 4 L 323.8507408639626 4 L 323.8507408639626 16 L 355.8507408639626 0 L 323.8507408639626 -16 L 323.8507408639626 -4 L 123.74134766537571 -4 Z" fill="rgb(0, 0, 0)" stroke="rgb(51, 51, 51)" stroke-width="0px"/></g></g><g class="related-pair"><g class="relationship" transform="translate(-786.0937500000011,-479.8832397460933) rotate(36.41818501962358)"><path class="relationship" d="M 123.67585341832043 4 L 354.1957738316678 4 L 354.1957738316678 16 L 386.1957738316678 0 L 354.1957738316678 -16 L 354.1957738316678 -4 L 123.67585341832043 -4 Z" fill="rgb(0, 0, 0)" stroke="rgb(51, 51, 51)" stroke-width="0px"/></g></g><g class="related-pair"><g class="relationship" transform="translate(-361.47204589843716,-166.6170458984371) rotate(0)"><path class="relationship" d="M 141.47770456374425 4 L 362.5398328288712 4 L 362.5398328288712 16 L 394.5398328288712 0 L 362.5398328288712 -16 L 362.5398328288712 -4 L 141.47770456374425 -4 Z" fill="rgb(0, 0, 0)" stroke="rgb(51, 51, 51)" stroke-width="0px"/></g></g><g class="related-pair"><g class="relationship" transform="translate(151.56444458007832,-166.6170458984371) rotate(-34.31336369319785)"><path class="relationship" d="M 118.49665764964423 4 L 419.77312593509686 4 L 419.77312593509686 16 L 451.77312593509686 0 L 419.77312593509686 -16 L 419.77312593509686 -4 L 118.49665764964423 -4 Z" fill="rgb(0, 0, 0)" stroke="rgb(51, 51, 51)" stroke-width="0px"/></g></g></g><g class="layer nodes"><circle class="node node-id-0" r="126.47770456374425" fill="rgb(255, 255, 255)" stroke="rgb(0, 0, 0)" stroke-width="8px" cx="-336.9821874999998" cy="-767.3413958740244"/><g class="caption"><text class="caption node" text-anchor="middle" alignment-baseline="central" x="-336.9821874999998" y="-792.3413958740244" fill="rgb(51, 51, 51)" font-size="50px" font-family="'Gill Sans', 'Gill Sans MT', Calibri, sans-serif">Extract</text><text class="caption node" text-anchor="middle" alignment-baseline="central" x="-336.9821874999998" y="-742.3413958740244" fill="rgb(51, 51, 51)" font-size="50px" font-family="'Gill Sans', 'Gill Sans MT', Calibri, sans-serif">Urls</text></g><circle class="node node-id-7" r="132.1154919416961" fill="rgb(255, 255, 255)" stroke="rgb(0, 0, 0)" stroke-width="8px" cx="151.56444458007832" cy="-767.3413958740244"/><g class="caption"><text class="caption node" text-anchor="middle" alignment-baseline="central" x="151.56444458007832" y="-792.3413958740244" fill="rgb(51, 51, 51)" font-size="50px" font-family="'Gill Sans', 'Gill Sans MT', Calibri, sans-serif">Store</text><text class="caption node" text-anchor="middle" alignment-baseline="central" x="151.56444458007832" y="-742.3413958740244" fill="rgb(51, 51, 51)" font-size="50px" font-family="'Gill Sans', 'Gill Sans MT', Calibri, sans-serif">as nodes</text></g><circle class="node node-id-7" r="116.21742531129283" fill="rgb(255, 255, 255)" stroke="rgb(0, 0, 0)" stroke-width="8px" cx="-336.9821874999998" cy="-452.9379016113279"/><g class="caption"><text class="caption node" text-anchor="middle" alignment-baseline="central" x="-336.9821874999998" y="-477.9379016113279" fill="rgb(51, 51, 51)" font-size="50px" font-family="'Gill Sans', 'Gill Sans MT', Calibri, sans-serif">Apply</text><text class="caption node" text-anchor="middle" alignment-baseline="central" x="-336.9821874999998" y="-427.9379016113279" fill="rgb(51, 51, 51)" font-size="50px" font-family="'Gill Sans', 'Gill Sans MT', Calibri, sans-serif">policies</text></g><circle class="node node-id-7" r="108.74134766537571" fill="rgb(255, 255, 255)" stroke="rgb(0, 0, 0)" stroke-width="8px" cx="151.56444458007832" cy="-452.9379016113279"/><g class="caption"><text class="caption node" text-anchor="middle" alignment-baseline="central" x="151.56444458007832" y="-477.9379016113279" fill="rgb(51, 51, 51)" font-size="50px" font-family="'Gill Sans', 'Gill Sans MT', Calibri, sans-serif">Mark</text><text class="caption node" text-anchor="middle" alignment-baseline="central" x="151.56444458007832" y="-427.9379016113279" fill="rgb(51, 51, 51)" font-size="50px" font-family="'Gill Sans', 'Gill Sans MT', Calibri, sans-serif">nodes</text></g><circle class="node node-id-7" r="88.94054214808746" fill="rgb(255, 255, 255)" stroke="rgb(0, 0, 0)" stroke-width="8px" cx="610.5655041503916" cy="-479.8832397460933"/><g class="caption"><text class="caption node" text-anchor="middle" alignment-baseline="central" x="610.5655041503916" y="-479.8832397460933" fill="rgb(51, 51, 51)" font-size="50px" font-family="'Gill Sans', 'Gill Sans MT', Calibri, sans-serif">Neo4j</text></g><circle class="node node-id-7" r="126.47770456374425" fill="rgb(255, 255, 255)" stroke="rgb(0, 0, 0)" stroke-width="8px" cx="-361.47204589843716" cy="-166.6170458984371"/><g class="caption"><text class="caption node" text-anchor="middle" alignment-baseline="central" x="-361.47204589843716" y="-191.6170458984371" fill="rgb(51, 51, 51)" font-size="50px" font-family="'Gill Sans', 'Gill Sans MT', Calibri, sans-serif">Extract</text><text class="caption node" text-anchor="middle" alignment-baseline="central" x="-361.47204589843716" y="-141.6170458984371" fill="rgb(51, 51, 51)" font-size="50px" font-family="'Gill Sans', 'Gill Sans MT', Calibri, sans-serif">content</text></g><circle class="node node-id-7" r="103.49665764964423" fill="rgb(255, 255, 255)" stroke="rgb(0, 0, 0)" stroke-width="8px" cx="151.56444458007832" cy="-166.6170458984371"/><g class="caption"><text class="caption node" text-anchor="middle" alignment-baseline="central" x="151.56444458007832" y="-191.6170458984371" fill="rgb(51, 51, 51)" font-size="50px" font-family="'Gill Sans', 'Gill Sans MT', Calibri, sans-serif">Fill</text><text class="caption node" text-anchor="middle" alignment-baseline="central" x="151.56444458007832" y="-141.6170458984371" fill="rgb(51, 51, 51)" font-size="50px" font-family="'Gill Sans', 'Gill Sans MT', Calibri, sans-serif">nodes</text></g><circle class="node node-id-7" r="108.67585341832043" fill="rgb(255, 255, 255)" stroke="rgb(0, 0, 0)" stroke-width="8px" cx="-786.0937500000011" cy="-479.8832397460933"/><g class="caption"><text class="caption node" text-anchor="middle" alignment-baseline="central" x="-786.0937500000011" y="-479.8832397460933" fill="rgb(51, 51, 51)" font-size="50px" font-family="'Gill Sans', 'Gill Sans MT', Calibri, sans-serif">Crawler</text></g></g><g class="layer properties"/><g class="layer overlay"><circle class="node overlay" r="130.47770456374425" stroke="none" fill="rgba(255, 255, 255, 0)" cx="-336.9821874999998" cy="-767.3413958740244"/><circle class="node ring" r="135.47770456374425" fill="none" stroke="rgba(255, 255, 255, 0)" stroke-width="10px" cx="-336.9821874999998" cy="-767.3413958740244"/><circle class="node overlay" r="136.1154919416961" stroke="none" fill="rgba(255, 255, 255, 0)" cx="151.56444458007832" cy="-767.3413958740244"/><circle class="node ring" r="141.1154919416961" fill="none" stroke="rgba(255, 255, 255, 0)" stroke-width="10px" cx="151.56444458007832" cy="-767.3413958740244"/><path class="relationship overlay" fill="rgba(255, 255, 255, 0)" stroke="rgba(255, 255, 255, 0)" stroke-width="10px" transform="translate(-786.0937500000011,-479.8832397460933) rotate(-32.621664568673374)" d="M 123.67585341832043 4 L 359.75150234043747 4 L 359.75150234043747 16 L 391.75150234043747 0 L 359.75150234043747 -16 L 359.75150234043747 -4 L 123.67585341832043 -4 Z"/><circle class="node overlay" r="120.21742531129283" stroke="none" fill="rgba(255, 255, 255, 0)" cx="-336.9821874999998" cy="-452.9379016113279"/><circle class="node ring" r="125.21742531129283" fill="none" stroke="rgba(255, 255, 255, 0)" stroke-width="10px" cx="-336.9821874999998" cy="-452.9379016113279"/><path class="relationship overlay" fill="rgba(255, 255, 255, 0)" stroke="rgba(255, 255, 255, 0)" stroke-width="10px" transform="translate(-336.9821874999998,-767.3413958740244) rotate(0)" d="M 141.47770456374425 4 L 309.43114013838203 4 L 309.43114013838203 16 L 341.43114013838203 0 L 309.43114013838203 -16 L 309.43114013838203 -4 L 141.47770456374425 -4 Z"/><circle class="node overlay" r="112.74134766537571" stroke="none" fill="rgba(255, 255, 255, 0)" cx="151.56444458007832" cy="-452.9379016113279"/><circle class="node ring" r="117.74134766537571" fill="none" stroke="rgba(255, 255, 255, 0)" stroke-width="10px" cx="151.56444458007832" cy="-452.9379016113279"/><path class="relationship overlay" fill="rgba(255, 255, 255, 0)" stroke="rgba(255, 255, 255, 0)" stroke-width="10px" transform="translate(-786.0937500000011,-479.8832397460933) rotate(3.4334580390473644)" d="M 123.67585341832043 4 L 286.7017305582805 4 L 286.7017305582805 16 L 318.7017305582805 0 L 286.7017305582805 -16 L 286.7017305582805 -4 L 123.67585341832043 -4 Z"/><circle class="node overlay" r="92.94054214808746" stroke="none" fill="rgba(255, 255, 255, 0)" cx="610.5655041503916" cy="-479.8832397460933"/><circle class="node ring" r="97.94054214808746" fill="none" stroke="rgba(255, 255, 255, 0)" stroke-width="10px" cx="610.5655041503916" cy="-479.8832397460933"/><path class="relationship overlay" fill="rgba(255, 255, 255, 0)" stroke="rgba(255, 255, 255, 0)" stroke-width="10px" transform="translate(-336.9821874999998,-452.9379016113279) rotate(0)" d="M 131.21742531129283 4 L 332.8052844147024 4 L 332.8052844147024 16 L 364.8052844147024 0 L 332.8052844147024 -16 L 332.8052844147024 -4 L 131.21742531129283 -4 Z"/><circle class="node overlay" r="130.47770456374425" stroke="none" fill="rgba(255, 255, 255, 0)" cx="-361.47204589843716" cy="-166.6170458984371"/><circle class="node ring" r="135.47770456374425" fill="none" stroke="rgba(255, 255, 255, 0)" stroke-width="10px" cx="-361.47204589843716" cy="-166.6170458984371"/><path class="relationship overlay" fill="rgba(255, 255, 255, 0)" stroke="rgba(255, 255, 255, 0)" stroke-width="10px" transform="translate(151.56444458007832,-767.3413958740244) rotate(32.057639975090645)" d="M 147.1154919416961 4 L 405.64432120311466 4 L 405.64432120311466 16 L 437.64432120311466 0 L 405.64432120311466 -16 L 405.64432120311466 -4 L 147.1154919416961 -4 Z"/><path class="relationship overlay" fill="rgba(255, 255, 255, 0)" stroke="rgba(255, 255, 255, 0)" stroke-width="10px" transform="translate(151.56444458007832,-452.9379016113279) rotate(-3.359653107979251)" d="M 123.74134766537571 4 L 323.8507408639626 4 L 323.8507408639626 16 L 355.8507408639626 0 L 323.8507408639626 -16 L 323.8507408639626 -4 L 123.74134766537571 -4 Z"/><circle class="node overlay" r="107.49665764964423" stroke="none" fill="rgba(255, 255, 255, 0)" cx="151.56444458007832" cy="-166.6170458984371"/><circle class="node ring" r="112.49665764964423" fill="none" stroke="rgba(255, 255, 255, 0)" stroke-width="10px" cx="151.56444458007832" cy="-166.6170458984371"/><path class="relationship overlay" fill="rgba(255, 255, 255, 0)" stroke="rgba(255, 255, 255, 0)" stroke-width="10px" transform="translate(-786.0937500000011,-479.8832397460933) rotate(36.41818501962358)" d="M 123.67585341832043 4 L 354.1957738316678 4 L 354.1957738316678 16 L 386.1957738316678 0 L 354.1957738316678 -16 L 354.1957738316678 -4 L 123.67585341832043 -4 Z"/><circle class="node overlay" r="112.67585341832043" stroke="none" fill="rgba(255, 255, 255, 0)" cx="-786.0937500000011" cy="-479.8832397460933"/><circle class="node ring" r="117.67585341832043" fill="none" stroke="rgba(255, 255, 255, 0)" stroke-width="10px" cx="-786.0937500000011" cy="-479.8832397460933"/><path class="relationship overlay" fill="rgba(255, 255, 255, 0)" stroke="rgba(255, 255, 255, 0)" stroke-width="10px" transform="translate(-361.47204589843716,-166.6170458984371) rotate(0)" d="M 141.47770456374425 4 L 362.5398328288712 4 L 362.5398328288712 16 L 394.5398328288712 0 L 362.5398328288712 -16 L 362.5398328288712 -4 L 141.47770456374425 -4 Z"/><path class="relationship overlay" fill="rgba(255, 255, 255, 0)" stroke="rgba(255, 255, 255, 0)" stroke-width="10px" transform="translate(151.56444458007832,-166.6170458984371) rotate(-34.31336369319785)" d="M 118.49665764964423 4 L 419.77312593509686 4 L 419.77312593509686 16 L 451.77312593509686 0 L 419.77312593509686 -16 L 419.77312593509686 -4 L 118.49665764964423 -4 Z"/></g></svg>